# xmcd
#
# Track frame offsets: 
#        187
#        21672
#        43272
#        64547
#        87520
#        108617
#        128805
#        146137
#        166325
#        186145
#
# Disc length: 2743 seconds
#
# Revision: 4
# Processed by: cddbd v1.5.2PL0 Copyright (c) Steve Scherf et al.
# Submitted via: ExactAudioCopyFreeDBPlugin 1.0
#
DISCID=940ab50a
DTITLE=Bobby Womack - The Last Soul Man
DYEAR=1987
DGENRE=Soul
TTITLE0=Living in a Box
TTITLE1=When the Weekend Comes (ft Sly Stone)
TTITLE2=I Still Love You
TTITLE3=Gina
TTITLE4=A World Where No One Cries
TTITLE5=A Woman Likes to Hear That
TTITLE6=Real Love Please Stand Up
TTITLE7=The Things We Do (When We're Lonely)
TTITLE8=Fallling in Love Again
TTITLE9=Outside Myself
EXTD=
EXTT0=
EXTT1=
EXTT2=
EXTT3=
EXTT4=
EXTT5=
EXTT6=
EXTT7=
EXTT8=
EXTT9=
PLAYORDER=
